<svg xmlns="http://www.w3.org/2000/svg" viewBox="0 0 64 64" width="64" height="64">
  <defs>
    <radialGradient id="bg" cx="50%" cy="50%" r="50%">
      <stop offset="0%" stop-color="#1a1230"/>
      <stop offset="100%" stop-color="#080612"/>
    </radialGradient>
    <linearGradient id="eyeGrad" x1="0%" y1="0%" x2="100%" y2="100%">
      <stop offset="0%" stop-color="#ff8fab"/>
      <stop offset="100%" stop-color="#e9c46a"/>
    </linearGradient>
    <linearGradient id="hairGrad" x1="0%" y1="0%" x2="100%" y2="100%">
      <stop offset="0%" stop-color="#c77dff"/>
      <stop offset="100%" stop-color="#ff8fab"/>
    </linearGradient>
  </defs>
  <circle cx="32" cy="32" r="32" fill="url(#bg)"/>
  <circle cx="32" cy="32" r="29" fill="none" stroke="#ff8fab" stroke-width="0.8" stroke-dasharray="3 2" opacity="0.5"/>
  <circle cx="32" cy="34" r="20" fill="#14082a"/>
  <path d="M14 26 Q18 10 32 10 Q46 10 50 26" fill="url(#hairGrad)" opacity="0.9"/>
  <path d="M14 26 Q12 30 14 36" stroke="url(#hairGrad)" stroke-width="4" fill="none" stroke-linecap="round"/>
  <path d="M50 26 Q52 30 50 36" stroke="url(#hairGrad)" stroke-width="4" fill="none" stroke-linecap="round"/>
  <ellipse cx="24" cy="33" rx="4.5" ry="3.5" fill="url(#eyeGrad)"/>
  <ellipse cx="40" cy="33" rx="4.5" ry="3.5" fill="url(#eyeGrad)"/>
  <circle cx="24.8" cy="32" r="1.6" fill="#080612"/>
  <circle cx="40.8" cy="32" r="1.6" fill="#080612"/>
  <circle cx="25.4" cy="31.4" r="0.6" fill="white"/>
  <circle cx="41.4" cy="31.4" r="0.6" fill="white"/>
  <path d="M25 43 Q32 48 39 43" stroke="#ff8fab" stroke-width="1.5" fill="none" stroke-linecap="round"/>
</svg>
